<?xml version="1.0" encoding="UTF-8"?>
<svg id="Layer_1" xmlns="http://www.w3.org/2000/svg" version="1.1" viewBox="0 0 30 32">
  <!-- Generator: Adobe Illustrator 29.2.1, SVG Export Plug-In . SVG Version: 2.1.0 Build 116)  -->
  <defs>
    <style>
      .st0 {
        fill: #fff;
      }
    </style>
  </defs>
  <path class="st0" d="M26,14.8c-2.1-5.7-6.4-10.9-11-14.8C10.4,3.9,6,9.1,4,14.8c-1.3,3.5-1.4,7.4.4,10.8,2.1,3.9,6.2,6.4,10.6,6.4s8.6-2.5,10.6-6.4c1.8-3.4,1.7-7.2.4-10.8h0ZM22.1,23.7c-1.4,2.6-4.1,4.3-7.1,4.3s-3.4-.6-4.8-1.6c.4,0,.8,0,1.3,0,3.7,0,7.1-2.1,8.9-5.4,1.4-2.7,1.3-5.4.7-7.6.5.9.8,1.8,1.2,2.6.7,2,1.3,4.9-.2,7.6Z"/>
</svg>